<svg xmlns="http://www.w3.org/2000/svg" width="424.264" height="470.132" viewBox="0 0 424.264 470.132">
  <g id="Groupe_11" data-name="Groupe 11" transform="translate(-122.868 -183)">
    <path id="Union_3" data-name="Union 3" d="M-1003,307V-93a50,50,0,0,1,50-50,50,50,0,0,1,50,50V307a50,50,0,0,1-50,50A50,50,0,0,1-1003,307Z" transform="translate(933.212 -308.533) rotate(-45)" fill="#18a447" opacity="0.7"/>
    <path id="Union_1" data-name="Union 1" d="M-1003,137V-93a50,50,0,0,1,50-50,50,50,0,0,1,50,50V137a50,50,0,0,1-50,50A50,50,0,0,1-1003,137Z" transform="translate(1147 393)" fill="#1d6db2" opacity="0.7"/>
    <path id="Union_2" data-name="Union 2" d="M-1003,207V-143a50,50,0,0,1,50-50,50,50,0,0,1,50,50V207a50,50,0,0,1-50,50A50,50,0,0,1-1003,207Z" transform="translate(1429 376)" fill="#b3d63b" opacity="0.7"/>
  </g>
</svg>
